<?xml version="1.0" encoding="UTF-8"?> <svg xmlns="http://www.w3.org/2000/svg" xmlns:xlink="http://www.w3.org/1999/xlink" id="Layer_1" viewBox="0 0 2244.14 414"><defs><style>.cls-1{fill:#254a9e;}.cls-2{fill:#234a9e;}.cls-3{fill:url(#New_Gradient_Swatch_3);}</style><linearGradient id="New_Gradient_Swatch_3" x1="1842.11" y1="167.72" x2="2232.68" y2="233.38" gradientUnits="userSpaceOnUse"><stop offset=".06" stop-color="#264b9c"></stop><stop offset=".1" stop-color="#2551a0"></stop><stop offset=".15" stop-color="#2562ac"></stop><stop offset=".21" stop-color="#257ec1"></stop><stop offset=".28" stop-color="#25a5dd"></stop><stop offset=".29" stop-color="#25ade3"></stop><stop offset=".31" stop-color="#25a1d8"></stop><stop offset=".4" stop-color="#265e96"></stop><stop offset=".46" stop-color="#26346d"></stop><stop offset=".5" stop-color="#27245e"></stop><stop offset=".56" stop-color="#23397e"></stop><stop offset=".62" stop-color="#214895"></stop><stop offset=".66" stop-color="#214e9e"></stop><stop offset=".68" stop-color="#214a98"></stop><stop offset=".7" stop-color="#224089"></stop><stop offset=".73" stop-color="#253070"></stop><stop offset=".75" stop-color="#27245e"></stop><stop offset=".77" stop-color="#262a68"></stop><stop offset=".84" stop-color="#233e85"></stop><stop offset=".91" stop-color="#214997"></stop><stop offset=".95" stop-color="#214e9e"></stop></linearGradient></defs><g><path class="cls-1" d="M26.15,136.15c0-2.18,.84-4.13,2.53-5.82,1.69-1.69,3.64-2.53,5.82-2.53h32.31c2.18,0,4.11,.84,5.8,2.53,1.71,1.69,2.55,3.64,2.55,5.82v74.04h84.59v-74.04c0-2.18,.84-4.13,2.53-5.82,1.69-1.69,3.64-2.53,5.82-2.53h32.31c2.18,0,4.11,.84,5.8,2.53s2.55,3.64,2.55,5.82v196.41c0,2.18-.87,4.09-2.55,5.8-1.69,1.69-3.62,2.55-5.8,2.55h-32.31c-2.18,0-4.13-.87-5.82-2.55-1.69-1.71-2.53-3.62-2.53-5.8v-80.61H75.17v80.61c0,2.18-.84,4.09-2.55,5.8-1.69,1.69-3.62,2.55-5.8,2.55H34.5c-2.18,0-4.13-.87-5.82-2.55-1.69-1.71-2.53-3.62-2.53-5.8V136.15Z"></path><path class="cls-1" d="M383.45,320.92c-15.23,15.26-35.82,22.87-61.72,22.87s-45.62-7.62-60.63-22.87c-14.77-15.01-22.14-35.93-22.14-62.8s7.37-47.08,22.14-62.8c15.01-15.01,35.47-22.52,61.36-22.52s47.19,7.28,61.72,21.81c14.28,14.99,21.41,36.15,21.41,63.51s-7.37,47.79-22.14,62.8Zm-35.58-102.02c-5.8-7.73-14.04-11.59-24.67-11.59-23.25,0-34.87,16.92-34.87,50.81,0,17.41,3.02,30.38,9.08,38.84,5.57,8.48,13.44,12.73,23.61,12.73,11.84,0,20.68-4.24,26.49-12.73,5.8-8.46,8.71-21.43,8.71-38.84,0-18.39-2.78-31.45-8.35-39.22Z"></path><path class="cls-1" d="M439.47,178.26c1.58-1.69,3.58-2.55,6-2.55h28.67c2.2,0,4.06,.73,5.64,2.2,1.58,1.42,2.35,3.24,2.35,5.42l1.09,11.28,.36,4.71c2.66-5.82,4.73-9.82,6.17-11.99,3.64-4.84,7.75-8.46,12.35-10.88,4.6-2.42,10.42-3.64,17.43-3.64,3.86,0,7.13,.38,9.79,1.11,3.86,.71,5.82,3.24,5.82,7.62v23.61c0,2.66-1.09,4.89-3.26,6.71-2.18,1.82-4.6,2.49-7.26,2-4.84-.49-8.13-.73-9.82-.73-9.68,0-16.81,3.75-21.41,11.26-5.57,7.73-8.35,19.59-8.35,35.58v72.62c0,2.18-.84,4.09-2.55,5.8-1.69,1.69-3.62,2.55-5.8,2.55h-30.49c-2.18,0-4.13-.87-5.82-2.55-1.69-1.71-2.53-3.62-2.53-5.8v-116.55c0-10.66-.13-17.81-.38-21.41-.24-2.66-.36-6.06-.36-10.17,0-2.44,.78-4.49,2.35-6.17Z"></path><path class="cls-1" d="M696.97,189.5c-9.44-11.1-23.23-16.7-41.4-16.7-12.1,0-22.63,2.91-31.58,8.73-6.84,4.31-12.66,10.59-17.5,18.8l-.29-6.83-.73-10.17v-.36c-.24-1.93-1.13-3.64-2.71-5.06-1.58-1.47-3.44-2.2-5.64-2.2h-28.67c-2.42,0-4.42,.87-6,2.55s-2.35,3.73-2.35,6.17c0,3.86,.11,7.02,.36,9.42,.24,3.42,.38,10.3,.38,20.7v118.01c0,2.18,.84,4.09,2.53,5.8,1.69,1.69,3.64,2.55,5.82,2.55h30.49c2.18,0,4.11-.87,5.8-2.55,1.71-1.71,2.55-3.62,2.55-5.8v-79.88c0-13.3,3.02-23.83,9.08-31.6,5.55-7.73,12.7-11.59,21.41-11.59,16.94,0,25.41,13.06,25.41,39.2v83.88c0,2.18,.84,4.09,2.55,5.8,1.69,1.69,3.62,2.55,5.8,2.55h30.51c2.18,0,4.11-.87,5.8-2.55,1.69-1.71,2.55-3.62,2.55-5.8v-95.49c0-20.81-4.73-36.67-14.17-47.57Z"></path><path class="cls-1" d="M756.67,301.69V125.25c0-2.18,.84-4.11,2.53-5.8,1.69-1.71,3.64-2.55,5.82-2.55h30.49c2.18,0,4.11,.84,5.8,2.55,1.71,1.69,2.55,3.62,2.55,5.8v55.19l-.36,15.97c10.64-15.26,26.74-23.12,48.28-23.61,19.83,0,35.2,7.51,46.1,22.52,10.17,14.77,15.23,35.58,15.23,62.45s-5.44,47.92-16.32,63.16c-10.9,15.26-26.76,22.87-47.57,22.87-11.37,0-21.65-2.53-30.85-7.62-6.31-3.62-11.39-8.46-15.26-14.52l-.36,4.73c0,1.69-.24,4.22-.73,7.6-.49,1.95-1.44,3.6-2.91,4.93-1.44,1.31-3.13,2-5.09,2h-29.4c-2.42,0-4.46-.87-6.17-2.55-1.69-1.71-2.53-3.89-2.53-6.55,.49-10.64,.73-20.68,.73-30.11Zm54.81-4.73c4.84,8.48,12.46,12.73,22.87,12.73s17.37-4.24,22.32-12.73c4.97-8.46,7.46-21.52,7.46-39.2s-2.55-30.87-7.64-38.86c-4.6-7.73-11.86-11.59-21.79-11.59s-18.03,4.22-22.85,12.7c-5.82,8.71-8.73,21.76-8.73,39.2,0,16.23,2.78,28.8,8.35,37.75Z"></path><path class="cls-1" d="M989.69,338.36c-1.71,1.69-3.64,2.55-5.82,2.55h-30.49c-2.18,0-4.11-.87-5.82-2.55-1.69-1.71-2.53-3.62-2.53-5.8V125.25c0-2.18,.84-4.11,2.53-5.8,1.71-1.71,3.64-2.55,5.82-2.55h30.49c2.18,0,4.11,.84,5.82,2.55,1.69,1.69,2.53,3.62,2.53,5.8v207.31c0,2.18-.84,4.09-2.53,5.8Z"></path><path class="cls-1" d="M1166.94,320.92c-15.23,15.26-35.82,22.87-61.72,22.87s-45.62-7.62-60.63-22.87c-14.77-15.01-22.14-35.93-22.14-62.8s7.37-47.08,22.14-62.8c15.01-15.01,35.47-22.52,61.36-22.52s47.19,7.28,61.72,21.81c14.28,14.99,21.41,36.15,21.41,63.51s-7.37,47.79-22.14,62.8Zm-35.58-102.02c-5.8-7.73-14.04-11.59-24.67-11.59-23.25,0-34.87,16.92-34.87,50.81,0,17.41,3.02,30.38,9.08,38.84,5.57,8.48,13.44,12.73,23.61,12.73,11.84,0,20.68-4.24,26.49-12.73,5.8-8.46,8.71-21.43,8.71-38.84,0-18.39-2.78-31.45-8.35-39.22Z"></path><path class="cls-1" d="M1206.91,179.15c1.82-2.29,4.29-3.44,7.44-3.44h26.49c1.93,0,3.69,.6,5.26,1.82,1.58,1.22,2.49,2.78,2.73,4.73v-.38l22.14,103.47,26.87-103.47c.49-1.93,1.51-3.44,3.09-4.53s3.2-1.64,4.91-1.64h36.29c1.69,0,3.33,.56,4.91,1.64,1.58,1.09,2.6,2.6,3.09,4.53l23.61,89.68,3.26,14.15,22.87-103.44c.47-1.95,1.44-3.51,2.89-4.73,1.47-1.22,3.15-1.82,5.09-1.82h26.14c3.15,0,5.64,1.15,7.44,3.44,1.82,2.31,2.38,4.91,1.64,7.82l-38.84,147.77c-.49,1.91-1.51,3.42-3.09,4.53-1.58,1.09-3.22,1.64-4.91,1.64h-35.58c-1.69,0-3.33-.56-4.91-1.64-1.58-1.11-2.6-2.62-3.09-4.53l-24.32-92.96-4.35-19.23-4.35,19.23-24.7,92.96c-.49,1.91-1.51,3.42-3.09,4.53-1.58,1.09-3.2,1.64-4.89,1.64h-35.6c-1.69,0-3.31-.56-4.89-1.64-1.58-1.11-2.6-2.49-3.09-4.18v-.36l-38.13-147.77c-.71-2.91-.18-5.51,1.64-7.82Z"></path><path class="cls-1" d="M1482.18,194.96c13.81-14.77,33.05-22.16,57.74-22.16s42.11,7.99,54.45,23.98c12.57,15.72,18.88,38.46,18.88,68.22,0,1.47-.8,2.55-2.35,3.29-1.58,.71-3.58,1.09-6,1.09h-93.67c.24,13.3,3.02,23.34,8.35,30.14,4.84,7.24,12.1,10.88,21.79,10.88,11.86,0,19.72-4.6,23.61-13.79,.71-1.69,1.87-2.95,3.44-3.82,1.58-.84,3.2-1.13,4.91-.91l26.49,2.18c2.42,.27,4.49,1.15,6.17,2.73,1.69,1.58,2.53,3.58,2.53,6,0,1.22-.36,2.42-1.09,3.62-12.81,24.94-35.58,37.4-68.24,37.4-24.7,0-43.82-7.51-57.36-22.52-13.3-14.75-19.96-35.93-19.96-63.51s6.77-48.06,20.32-62.8Zm84.97,42.46c-.73-10.39-3.4-18.52-7.99-24.32-4.84-5.57-11.5-8.35-19.96-8.35s-15.37,3.04-19.96,9.08c-4.35,5.8-6.91,13.68-7.62,23.58h55.54Z"></path><path class="cls-1" d="M1650.39,178.26c1.58-1.69,3.58-2.55,6-2.55h28.67c2.2,0,4.06,.73,5.64,2.2,1.58,1.42,2.35,3.24,2.35,5.42l1.09,11.28,.36,4.71c2.66-5.82,4.73-9.82,6.17-11.99,3.64-4.84,7.75-8.46,12.35-10.88,4.6-2.42,10.42-3.64,17.43-3.64,3.86,0,7.13,.38,9.79,1.11,3.86,.71,5.82,3.24,5.82,7.62v23.61c0,2.66-1.09,4.89-3.26,6.71s-4.6,2.49-7.26,2c-4.84-.49-8.13-.73-9.82-.73-9.68,0-16.81,3.75-21.41,11.26-5.57,7.73-8.35,19.59-8.35,35.58v72.62c0,2.18-.84,4.09-2.55,5.8-1.69,1.69-3.62,2.55-5.8,2.55h-30.49c-2.18,0-4.13-.87-5.82-2.55-1.69-1.71-2.53-3.62-2.53-5.8v-116.55c0-10.66-.13-17.81-.38-21.41-.24-2.66-.36-6.06-.36-10.17,0-2.44,.78-4.49,2.35-6.17Z"></path></g><path class="cls-3" d="M2190.17,229.09c-8.28-7.39-22.87-13.82-39.59-12.2-16.09,1.68-14.94-14.95-28.5-25.11-21.4-16.75-37.51-8.31-56.39-10.44-18.94-2.07-7.45-13.51-21.39-35.73-16.75-29.69-98.09-45.53-144.88-37.14l6.82-38.92c46.04-8.19,123.15,9.04,139.42,39.12,13.54,22.44,2.07,33.82,20.79,36.09,18.68,2.31,34.7-6.03,55.76,11,13.36,10.33,12.09,27.03,28.06,25.49,15.75-1.41,24.45,4.88,33.57,11.89-1.08-3.61-3.16-19.47-4.84-27.3-1.39-6.5-2.08-18.37-8.21-27.42-6.22-9.17-18.66-8.37-27.97-6.9-9.48,1.5-18.65-21.11-28.85-28.54-10.21-7.45-21.11-12.95-42.05-10.92-8.56,.82-19.77,.3-22.06-22.96-2.29-23.26-24.01-40.15-55.83-47.57-20.5-4.78-47.49-11.23-78.34-5.87l.36-1.99c.31-1.72,.07-3.32-.71-4.83-.76-1.49-1.79-2.38-3.07-2.6l-7.51-1.35c-1.3-.23-2.56,.24-3.79,1.39-1.24,1.15-2,2.57-2.31,4.29l-56.7,323.62c-.29,1.72-.05,3.32,.71,4.83,.78,1.51,1.81,2.38,3.09,2.62l7.51,1.34c1.28,.23,2.54-.22,3.78-1.37,1.23-1.15,2-2.59,2.29-4.29l18.77-107.18c7.35-1.92,42.63-10.12,85.88-3.17,48.72,7.84,65.26,19.63,73.27,34.2,5.06,9.21,5.26,14.53,6.7,18.26,1.44,3.74,2.39,10.03,16.28,8.97,13.87-1.04,20.94-3.04,33.06-2.24,12.1,.82,26.95,7.17,32.89,14.93,5.94,7.76,9.92,13.87,15.82,15.38,5.9,1.49,9.41,1.24,18.25-.44,8.17-1.56,15.92-.44,26.12,6.3,10.19,6.75,25.99,16.62,31.61,17.47-4.51-6.45-11.55-35.14-17.81-63.62-1.3-1-25.98-19.11-48.21-15.92-16.28,2.32-15.37-14.55-29.31-24.36-22.05-16.22-38.32-7.54-57.59-9.3-19.35-1.72-7.85-13.28-22.56-35.06-17.97-29.41-104.22-43.16-151.77-33.57l6.15-35.13c47.17-8.85,129.33,6.25,146.64,35.75,14.32,22.02,2.82,33.51,21.97,35.41,19.08,1.95,35.27-6.61,57,9.89,13.75,10,12.71,26.57,28.9,24.75,17.07-1.79,31.99,4.68,40.32,12.08,.4,.32,.78,.64,1.17,.96l-2.71-12.59Z"></path><path class="cls-2" d="M1766.4,409.18c-3.36,0-6.49-.62-9.4-1.88-2.91-1.25-5.47-2.99-7.69-5.21s-3.95-4.78-5.2-7.69c-1.26-2.91-1.88-6.05-1.88-9.41s.63-6.49,1.88-9.41c1.25-2.91,2.99-5.47,5.2-7.69s4.78-3.95,7.69-5.21c2.91-1.25,6.04-1.88,9.4-1.88s6.49,.62,9.4,1.88c2.91,1.26,5.48,2.99,7.69,5.21,2.22,2.22,3.95,4.78,5.21,7.69,1.25,2.91,1.88,6.05,1.88,9.41s-.63,6.49-1.88,9.41c-1.26,2.91-2.99,5.47-5.21,7.69-2.21,2.22-4.78,3.96-7.69,5.21-2.91,1.25-6.04,1.88-9.4,1.88Zm0-4.23c2.73,0,5.28-.51,7.66-1.54,2.37-1.03,4.45-2.47,6.25-4.3,1.79-1.83,3.2-3.96,4.23-6.38,1.03-2.42,1.54-5,1.54-7.73s-.51-5.31-1.54-7.73c-1.03-2.41-2.44-4.54-4.23-6.38-1.79-1.84-3.88-3.28-6.25-4.34-2.37-1.05-4.93-1.58-7.66-1.58s-5.28,.53-7.65,1.58c-2.37,1.06-4.46,2.5-6.25,4.34s-3.19,3.96-4.2,6.38c-1.01,2.42-1.51,5-1.51,7.73s.51,5.31,1.51,7.73c1.01,2.41,2.41,4.55,4.2,6.38,1.79,1.84,3.87,3.27,6.25,4.3,2.37,1.03,4.92,1.54,7.65,1.54Zm-7.79-7.72c-.99,0-1.48-.49-1.48-1.48v-21.63c0-.98,.49-1.48,1.48-1.48h8.8c1.7,0,3.27,.24,4.7,.73,1.43,.5,2.59,1.32,3.46,2.49,.87,1.17,1.31,2.74,1.31,4.7,0,1.79-.44,3.27-1.31,4.43-.87,1.17-1.98,2.01-3.33,2.55l4.3,7.25c.09,.09,.15,.22,.2,.37,.05,.16,.07,.35,.07,.57,0,.36-.12,.7-.37,1.01s-.62,.47-1.11,.47h-1.81c-.45,0-.83-.11-1.14-.34-.31-.22-.58-.53-.81-.94l-4.37-7.46h-5.1v7.25c0,.99-.5,1.48-1.48,1.48h-2.01Zm3.49-13.16h5.17c1.79,0,3-.36,3.63-1.08s.94-1.52,.94-2.42-.31-1.76-.94-2.49c-.63-.71-1.84-1.08-3.63-1.08h-5.17v7.06Z"></path></svg> 